<mxfile host="app.diagrams.net" modified="2024-04-30T07:09:40.385Z" agent="Mozilla/5.0 (Macintosh; Intel Mac OS X 10_15_7) AppleWebKit/605.1.15 (KHTML, like Gecko) Version/16.6 Safari/605.1.15" etag="YPEdyfVw_kXvy3QyKMnP" version="24.2.8" type="github">
  <diagram name="Page-1" id="D-a-eieVtsCvVFc8nxiY">
    <mxGraphModel dx="2693" dy="1146" grid="1" gridSize="10" guides="1" tooltips="1" connect="1" arrows="1" fold="1" page="1" pageScale="1" pageWidth="827" pageHeight="1169" math="0" shadow="0">
      <root>
        <mxCell id="0" />
        <mxCell id="1" parent="0" />
        <mxCell id="LGXkmmJbCQYHeZerWq-j-21" value="" style="group" vertex="1" connectable="0" parent="1">
          <mxGeometry x="-50" y="32" width="960" height="870" as="geometry" />
        </mxCell>
        <mxCell id="LGXkmmJbCQYHeZerWq-j-20" value="" style="rounded=1;whiteSpace=wrap;html=1;dashed=1;fillColor=#d5e8d4;strokeColor=#82b366;" vertex="1" parent="LGXkmmJbCQYHeZerWq-j-21">
          <mxGeometry width="960" height="870" as="geometry" />
        </mxCell>
        <mxCell id="LGXkmmJbCQYHeZerWq-j-2" value="Host" style="rounded=1;whiteSpace=wrap;html=1;fillColor=#ffe6cc;strokeColor=#d79b00;fontFamily=K2D;fontSource=https%3A%2F%2Ffonts.googleapis.com%2Fcss%3Ffamily%3DK2D;fontSize=22;" vertex="1" parent="LGXkmmJbCQYHeZerWq-j-21">
          <mxGeometry x="140" y="400" width="120" height="60" as="geometry" />
        </mxCell>
        <mxCell id="LGXkmmJbCQYHeZerWq-j-3" value="path_geoserver" style="rounded=1;whiteSpace=wrap;html=1;fillColor=#ffe6cc;strokeColor=#d79b00;fontFamily=K2D;fontSource=https%3A%2F%2Ffonts.googleapis.com%2Fcss%3Ffamily%3DK2D;fontSize=22;" vertex="1" parent="LGXkmmJbCQYHeZerWq-j-21">
          <mxGeometry x="284" y="100" width="190" height="60" as="geometry" />
        </mxCell>
        <mxCell id="LGXkmmJbCQYHeZerWq-j-19" style="edgeStyle=orthogonalEdgeStyle;rounded=1;orthogonalLoop=1;jettySize=auto;html=1;fillColor=#f8cecc;strokeColor=#b85450;curved=0;endArrow=none;endFill=0;" edge="1" parent="LGXkmmJbCQYHeZerWq-j-21" source="LGXkmmJbCQYHeZerWq-j-4" target="LGXkmmJbCQYHeZerWq-j-18">
          <mxGeometry relative="1" as="geometry" />
        </mxCell>
        <mxCell id="LGXkmmJbCQYHeZerWq-j-4" value="username from WebODM&amp;nbsp;" style="rounded=1;whiteSpace=wrap;html=1;fillColor=#f8cecc;strokeColor=#b85450;fontFamily=K2D;fontSource=https%3A%2F%2Ffonts.googleapis.com%2Fcss%3Ffamily%3DK2D;fontSize=22;" vertex="1" parent="LGXkmmJbCQYHeZerWq-j-21">
          <mxGeometry x="550" y="400" width="200" height="90" as="geometry" />
        </mxCell>
        <mxCell id="LGXkmmJbCQYHeZerWq-j-5" value="service_type" style="rounded=1;whiteSpace=wrap;html=1;fillColor=#ffe6cc;strokeColor=#d79b00;fontFamily=K2D;fontSource=https%3A%2F%2Ffonts.googleapis.com%2Fcss%3Ffamily%3DK2D;fontSize=22;" vertex="1" parent="LGXkmmJbCQYHeZerWq-j-21">
          <mxGeometry x="640" y="100" width="190" height="60" as="geometry" />
        </mxCell>
        <mxCell id="LGXkmmJbCQYHeZerWq-j-12" value="" style="group" vertex="1" connectable="0" parent="LGXkmmJbCQYHeZerWq-j-21">
          <mxGeometry x="80" y="220" width="780" height="140" as="geometry" />
        </mxCell>
        <mxCell id="LGXkmmJbCQYHeZerWq-j-1" value="&lt;font style=&quot;font-size: 30px;&quot; data-font-src=&quot;https://fonts.googleapis.com/css?family=K2D&quot; face=&quot;K2D&quot;&gt;&lt;u&gt;service.gistnu.nu.ac.th&lt;/u&gt; / &lt;u&gt;geoserver&lt;/u&gt; / &lt;u&gt;pasura_dev&lt;/u&gt; / &lt;u&gt;wms&lt;/u&gt;?&lt;/font&gt;" style="rounded=1;whiteSpace=wrap;html=1;fillColor=#dae8fc;strokeColor=#6c8ebf;fontSize=30;" vertex="1" parent="LGXkmmJbCQYHeZerWq-j-12">
          <mxGeometry width="780" height="140" as="geometry" />
        </mxCell>
        <mxCell id="LGXkmmJbCQYHeZerWq-j-7" value="" style="rounded=1;whiteSpace=wrap;html=1;fillColor=none;dashed=1;strokeColor=none;" vertex="1" parent="LGXkmmJbCQYHeZerWq-j-12">
          <mxGeometry y="40" width="320" height="50" as="geometry" />
        </mxCell>
        <mxCell id="LGXkmmJbCQYHeZerWq-j-8" value="" style="rounded=1;whiteSpace=wrap;html=1;fillColor=none;dashed=1;strokeColor=none;" vertex="1" parent="LGXkmmJbCQYHeZerWq-j-12">
          <mxGeometry x="340" y="60" width="140" height="50" as="geometry" />
        </mxCell>
        <mxCell id="LGXkmmJbCQYHeZerWq-j-9" value="" style="rounded=1;whiteSpace=wrap;html=1;fillColor=none;dashed=1;strokeColor=none;" vertex="1" parent="LGXkmmJbCQYHeZerWq-j-12">
          <mxGeometry x="500" y="40" width="170" height="50" as="geometry" />
        </mxCell>
        <mxCell id="LGXkmmJbCQYHeZerWq-j-11" value="" style="rounded=1;whiteSpace=wrap;html=1;fillColor=none;dashed=1;strokeColor=none;" vertex="1" parent="LGXkmmJbCQYHeZerWq-j-12">
          <mxGeometry x="690" y="60" width="80" height="45" as="geometry" />
        </mxCell>
        <mxCell id="LGXkmmJbCQYHeZerWq-j-13" style="edgeStyle=orthogonalEdgeStyle;rounded=1;orthogonalLoop=1;jettySize=auto;html=1;exitX=0.5;exitY=1;exitDx=0;exitDy=0;curved=0;fillColor=#ffe6cc;strokeColor=#d79b00;" edge="1" parent="LGXkmmJbCQYHeZerWq-j-21" source="LGXkmmJbCQYHeZerWq-j-7" target="LGXkmmJbCQYHeZerWq-j-2">
          <mxGeometry relative="1" as="geometry">
            <Array as="points">
              <mxPoint x="240" y="378" />
              <mxPoint x="200" y="378" />
            </Array>
          </mxGeometry>
        </mxCell>
        <mxCell id="LGXkmmJbCQYHeZerWq-j-14" style="edgeStyle=orthogonalEdgeStyle;rounded=1;orthogonalLoop=1;jettySize=auto;html=1;exitX=0.5;exitY=0;exitDx=0;exitDy=0;fillColor=#ffe6cc;strokeColor=#d79b00;curved=0;entryX=0.5;entryY=1;entryDx=0;entryDy=0;" edge="1" parent="LGXkmmJbCQYHeZerWq-j-21" source="LGXkmmJbCQYHeZerWq-j-8" target="LGXkmmJbCQYHeZerWq-j-3">
          <mxGeometry relative="1" as="geometry">
            <Array as="points">
              <mxPoint x="490" y="190" />
              <mxPoint x="380" y="190" />
            </Array>
          </mxGeometry>
        </mxCell>
        <mxCell id="LGXkmmJbCQYHeZerWq-j-15" style="edgeStyle=orthogonalEdgeStyle;rounded=1;orthogonalLoop=1;jettySize=auto;html=1;exitX=0.5;exitY=1;exitDx=0;exitDy=0;curved=0;fillColor=#f8cecc;strokeColor=#b85450;" edge="1" parent="LGXkmmJbCQYHeZerWq-j-21" source="LGXkmmJbCQYHeZerWq-j-9" target="LGXkmmJbCQYHeZerWq-j-4">
          <mxGeometry relative="1" as="geometry" />
        </mxCell>
        <mxCell id="LGXkmmJbCQYHeZerWq-j-17" style="edgeStyle=orthogonalEdgeStyle;rounded=1;orthogonalLoop=1;jettySize=auto;html=1;exitX=0.5;exitY=0;exitDx=0;exitDy=0;entryX=0.5;entryY=1;entryDx=0;entryDy=0;curved=0;fillColor=#ffe6cc;strokeColor=#d79b00;" edge="1" parent="LGXkmmJbCQYHeZerWq-j-21" source="LGXkmmJbCQYHeZerWq-j-11" target="LGXkmmJbCQYHeZerWq-j-5">
          <mxGeometry relative="1" as="geometry">
            <Array as="points">
              <mxPoint x="810" y="190" />
              <mxPoint x="735" y="190" />
            </Array>
          </mxGeometry>
        </mxCell>
        <mxCell id="LGXkmmJbCQYHeZerWq-j-18" value="&lt;div style=&quot;&quot;&gt;&lt;b&gt;How to get username :&lt;/b&gt;&lt;/div&gt;&lt;div style=&quot;&quot;&gt;&lt;br&gt;&lt;/div&gt;&lt;div style=&quot;text-align: left;&quot;&gt;&lt;u&gt;WebODM API&lt;/u&gt;&lt;/div&gt;&lt;div style=&quot;text-align: left;&quot;&gt;Step 1 &amp;nbsp;: &amp;nbsp;Create New Login Page&lt;/div&gt;&lt;div style=&quot;text-align: left;&quot;&gt;Step 2 : &amp;nbsp;Store Login Respond to Cookie &amp;lt; sessionid:jwt from login &amp;gt;&lt;/div&gt;&lt;div style=&quot;text-align: left;&quot;&gt;Step 3 : &amp;nbsp;Redirect Page&lt;/div&gt;" style="rounded=1;whiteSpace=wrap;html=1;fillColor=#f8cecc;strokeColor=#b85450;fontFamily=K2D;fontSource=https%3A%2F%2Ffonts.googleapis.com%2Fcss%3Ffamily%3DK2D;fontSize=22;" vertex="1" parent="LGXkmmJbCQYHeZerWq-j-21">
          <mxGeometry x="130" y="580" width="700" height="190" as="geometry" />
        </mxCell>
        <mxCell id="LGXkmmJbCQYHeZerWq-j-24" value="&lt;font data-font-src=&quot;https://fonts.googleapis.com/css?family=K2D&quot; face=&quot;K2D&quot;&gt;&lt;font style=&quot;font-size: 28px;&quot; data-font-src=&quot;https://fonts.googleapis.com/css?family=K2D&quot;&gt;Template&amp;nbsp;&lt;/font&gt;&lt;span style=&quot;font-size: 28px;&quot;&gt;Link&lt;/span&gt;&lt;/font&gt;" style="text;html=1;align=center;verticalAlign=middle;whiteSpace=wrap;rounded=1;fillColor=none;strokeColor=none;fontColor=#FF0000;fontStyle=1" vertex="1" parent="LGXkmmJbCQYHeZerWq-j-21">
          <mxGeometry x="80" y="188" width="200" height="40" as="geometry" />
        </mxCell>
        <mxCell id="LGXkmmJbCQYHeZerWq-j-22" value="&lt;font face=&quot;K2D&quot;&gt;&lt;font style=&quot;font-size: 28px;&quot;&gt;Database&lt;/font&gt;&lt;span style=&quot;font-size: 11px;&quot;&gt;&amp;nbsp;&lt;/span&gt;&lt;/font&gt;" style="rounded=1;whiteSpace=wrap;html=1;fillColor=#e1d5e7;strokeColor=#9673a6;" vertex="1" parent="1">
          <mxGeometry x="1020" y="280" width="549" height="400" as="geometry" />
        </mxCell>
        <mxCell id="LGXkmmJbCQYHeZerWq-j-23" value="&lt;font face=&quot;K2D&quot;&gt;&lt;span style=&quot;font-size: 28px;&quot;&gt;leaflet&lt;/span&gt;&lt;/font&gt;" style="rounded=1;whiteSpace=wrap;html=1;fillColor=#e1d5e7;strokeColor=#9673a6;" vertex="1" parent="1">
          <mxGeometry x="1020" y="730" width="549" height="400" as="geometry" />
        </mxCell>
      </root>
    </mxGraphModel>
  </diagram>
</mxfile>
